<svg width="338" height="82" viewBox="0 0 338 82" fill="none" xmlns="http://www.w3.org/2000/svg">
<g clip-path="url(#clip0_1_4)">
<path fill-rule="evenodd" clip-rule="evenodd" d="M311.05 20.2758H308.658L305.895 11.7741L299.49 31.4817H296.615L294.681 30.0845L304.46 0L311.05 20.2758ZM116.207 25H111.887V23.7259H131.016V25H125.137L137.392 50.2542L146.836 30.0053C147.144 29.4209 147.35 28.8975 147.487 28.4469C147.624 27.998 147.693 27.593 147.693 27.2334C147.693 26.4236 147.316 25.8544 146.562 25.5545C145.807 25.2404 143.99 25.0449 141.111 24.9556V23.7259H155.371V25H154.771C153.4 25 152.235 25.4482 151.309 26.3329C150.366 27.2334 149.2 29.1358 147.796 32.0748L134.633 60.1314L133.775 60.6107L116.207 25ZM185.923 58.2432H186.242H186.245L186.263 58.2425L186.7 58.2432H189.9V14.6519H178.839V13.379H188.991C190.911 13.379 192.626 13.2139 194.15 12.8688C195.659 12.5385 197.133 11.999 198.539 11.2349V58.2432H204.211V59.5161H187.467C186.256 60.0462 184.947 60.3104 183.535 60.3104C181.393 60.3104 179.609 59.8166 178.17 58.8428C176.713 57.8525 175.788 56.4597 175.343 54.6305C174.005 56.6243 172.121 58.1233 169.703 59.1119C167.269 60.1159 164.287 60.6107 160.74 60.6107C157.328 60.6107 154.501 59.7422 152.255 58.0177C150.009 56.2936 148.895 54.1517 148.895 51.6025C148.895 47.7512 151.106 44.7543 155.545 42.6264C159.984 40.5124 166.257 39.4482 174.399 39.4482H174.897V30.3655C174.897 28.0719 174.28 26.4236 173.045 25.42C171.795 24.4171 169.789 23.9054 167.013 23.9054C164.664 23.9054 162.608 24.4015 160.842 25.4044C159.06 26.3947 158.185 27.3685 158.185 28.2973C158.185 28.387 158.648 28.8224 159.608 29.6171C160.567 30.411 161.047 31.2805 161.047 32.2544C161.047 33.5738 160.653 34.6073 159.848 35.3717C159.043 36.1357 157.963 36.5115 156.625 36.5115C155.186 36.5115 154.039 36.1202 153.198 35.3413C152.341 34.5774 151.912 33.5435 151.912 32.2544C151.912 29.5861 153.37 27.3234 156.283 25.4482C159.197 23.5766 162.848 22.6319 167.218 22.6319C169.395 22.6319 171.434 22.9016 173.355 23.4266C175.256 23.9513 177.039 24.746 178.719 25.7941C180.329 26.8138 181.427 27.8933 182.026 29.0013C182.627 30.1107 182.936 31.9248 182.936 34.4429V52.4872C182.936 54.4223 183.182 55.8503 183.706 56.7746C184.204 57.6533 184.947 58.1956 185.923 58.2432ZM174.897 52.9226V40.8126C174.537 40.7824 174.125 40.7523 173.697 40.7369C173.252 40.7226 172.633 40.7226 171.828 40.7226C167.081 40.7226 163.551 41.5312 161.271 43.1356C158.974 44.7391 157.826 47.2272 157.826 50.6003C157.826 53.1467 158.46 55.1253 159.728 56.5198C161.013 57.9284 162.778 58.6314 165.058 58.6314C167.064 58.6314 168.966 58.1233 170.748 57.0886C172.549 56.0696 173.92 54.6767 174.897 52.9226ZM211.441 36.7653H227.312V32.5534C227.312 29.6015 226.662 27.413 225.359 26.0195C224.056 24.6099 222.017 23.9054 219.275 23.9054C216.669 23.9054 214.698 24.7309 213.395 26.3639C212.092 27.998 211.441 30.471 211.441 33.7827V36.7653ZM211.441 38.0398V48.4556C211.441 52.1876 212.263 54.9163 213.909 56.6098C215.537 58.3022 218.16 59.1565 221.742 59.1565C225.324 59.1565 228.409 58.1387 231.032 56.0846C233.637 54.0316 235.488 51.1992 236.55 47.5716H238.111C236.876 51.6942 234.785 54.9163 231.837 57.2386C228.889 59.5471 225.393 60.7006 221.331 60.7006C216.051 60.7006 211.509 58.8727 207.755 55.23C203.986 51.5887 202.1 47.1527 202.1 41.9069C202.1 36.4363 203.797 31.85 207.191 28.1628C210.601 24.4765 214.749 22.6319 219.686 22.6319C224.433 22.6319 228.477 24.0865 231.837 26.978C235.179 29.8708 237.048 33.5584 237.408 38.0398H211.441ZM249.404 53.237C249.404 55.23 249.747 56.6387 250.416 57.4785C251.084 58.3022 252.215 58.7231 253.827 58.7231C255.524 58.7231 257.014 58.2877 258.283 57.4331C259.569 56.5646 260.511 55.3362 261.145 53.762H262.654C261.882 55.9495 260.597 57.644 258.814 58.8276C257.032 60.0126 254.838 60.6107 252.267 60.6107C250.622 60.6107 249.079 60.3717 247.623 59.9066C246.165 59.4415 244.913 58.7676 243.885 57.8837C243.081 57.2079 242.497 56.4439 242.154 55.5906C241.794 54.7205 241.622 53.4783 241.622 51.8738V50.0745V25H234.493V23.7259C238.538 23.7259 241.657 22.7819 243.833 20.8779C246.011 18.9751 247.467 15.3869 248.205 11.2349H249.404V23.7259H260.802V25H249.404V53.237ZM72.6216 36.3319C72.6216 39.7485 73.3083 42.2513 74.6792 43.8403C76.0503 45.4138 78.244 46.2088 81.2607 46.2088C84.2439 46.2088 86.3508 45.3827 87.5678 43.7197C88.7849 42.0707 89.4025 39.0293 89.4025 34.6222C89.4025 30.7248 88.7507 27.9375 87.4653 26.244C86.1801 24.565 84.0714 23.7259 81.1579 23.7259C78.0558 23.7259 75.8445 24.6398 74.5585 26.4695C73.2731 28.2974 72.6216 31.5795 72.6216 36.3319ZM87.0373 61.135H78.0047C74.1139 61.135 71.1134 61.959 69.0056 63.6232C66.8974 65.2714 65.8517 67.625 65.8517 70.6675C65.8517 73.7104 67.1198 76.1233 69.674 77.8909C72.2105 79.6609 75.673 80.5458 80.0608 80.5458C85.6144 80.5458 90.293 79.2258 94.0983 76.5735C97.8865 73.9203 99.7894 70.7579 99.7894 67.0701C99.7894 64.8984 98.8803 63.3691 97.047 62.4689C95.2296 61.5845 91.8873 61.135 87.0373 61.135ZM10.1083 46.7321C10.1083 51.1847 10.8625 54.3761 12.371 56.3246C13.8799 58.2725 16.3298 59.2465 19.7582 59.2465C22.7231 59.2465 25.3462 58.498 27.5914 56.9842C29.8192 55.4845 31.636 53.2676 33.0077 50.3442V34.2631C31.7046 31.1005 29.9047 28.6569 27.6431 26.9328C25.3628 25.2094 22.7921 24.3399 19.9469 24.3399C16.6733 24.3399 14.2054 25.3449 12.5769 27.3685C10.9315 29.3909 10.1083 32.4044 10.1083 36.4209V46.7321ZM101.81 15.8761C101.81 14.797 102.334 13.8531 103.382 13.0588C104.411 12.2493 105.659 11.8453 107.13 11.8453C108.622 11.8453 109.871 12.2337 110.899 13.028C111.926 13.8231 112.43 14.7667 112.43 15.8761C112.43 17.0297 111.926 17.9754 110.919 18.7387C109.931 19.5037 108.662 19.8767 107.13 19.8767C105.618 19.8767 104.368 19.4881 103.341 18.7094C102.314 17.9444 101.81 16.999 101.81 15.8761ZM49.3054 15.8761C49.3054 14.797 49.8299 13.8531 50.8777 13.0588C51.9061 12.2493 53.1545 11.8453 54.626 11.8453C56.1176 11.8453 57.3667 12.2337 58.3946 13.028C59.4215 13.8231 59.9264 14.7667 59.9264 15.8761C59.9264 17.0297 59.4215 17.9754 58.4145 18.7387C57.4268 19.5037 56.1569 19.8767 54.626 19.8767C53.1152 19.8767 51.8646 19.4881 50.8369 18.7094C49.8088 17.9444 49.3054 16.999 49.3054 15.8761ZM100.332 58.2556H102.863V25.0119H99.3046C97.0466 24.9239 95.5482 25.047 94.3269 25.4283C93.91 25.5775 93.4983 25.7582 93.0902 25.9699C92.855 26.094 92.6199 26.2299 92.3847 26.3795L93.2319 27.0611L93.2244 27.068C94.4932 28.418 95.4354 29.7515 96.0693 31.0854C96.7035 32.4189 97.0291 33.7679 97.0291 35.1474C97.0291 38.5041 95.4696 41.4123 92.3329 43.8403C89.1962 46.2682 85.4775 47.4817 81.1579 47.4817C80.0609 47.4817 78.4838 47.2572 76.4441 46.8084C74.4053 46.3426 72.8971 46.1178 71.9191 46.1178C69.8453 46.1178 68.1138 46.5529 66.6918 47.4372C65.2861 48.32 64.584 49.3703 64.584 50.6003C64.584 51.9783 65.2692 52.9226 66.6226 53.4318C67.9768 53.9411 71.0104 54.1968 75.742 54.1968H84.3798C91.5108 54.1968 96.2413 54.9763 98.5555 56.5198C99.2518 56.9842 99.8433 57.5633 100.332 58.2556ZM33.1607 53.5818C31.3446 55.9651 29.4079 57.7182 27.3006 58.8727C25.2097 60.026 22.8779 60.6107 20.3069 60.6107C14.513 60.6107 9.80097 58.8428 6.16638 55.3208C2.53239 51.7987 0.71595 47.1972 0.71595 41.5173C0.71595 36.3912 2.56731 31.9848 6.28646 28.2818C10.0058 24.5808 14.3596 22.7227 19.3471 22.7227C22.3299 22.7227 25.0034 23.4422 27.3514 24.8657C29.7168 26.3043 31.6019 28.3563 33.0077 31.0099V14.6519H21.932V13.379H32.0982C33.9156 13.379 35.5794 13.1984 37.1212 12.854C38.6632 12.5096 40.1721 11.9689 41.6464 11.235V23.7259H41.6011V25.0001H41.6464V58.2432H44.5629H47.6283H50.3899V25.0001H41.6464V23.7259H49.4992C51.6415 23.7259 53.5101 23.6359 55.1217 23.4556C56.7153 23.2908 58.0182 23.0074 59.0294 22.6319V58.2432H64.396C63.1503 56.7166 62.5267 54.9173 62.5267 52.8322C62.5267 50.4042 63.367 48.5162 65.0464 47.1666C66.7087 45.8334 69.1425 45.0839 72.3133 44.9342C69.7763 43.4352 67.9086 41.8918 66.7267 40.3034C65.5434 38.7138 64.943 36.9614 64.943 35.0574C64.943 31.5505 66.4856 28.5969 69.5885 26.2143C72.6906 23.8303 76.6152 22.6319 81.3639 22.6319C83.5741 22.6319 85.5968 22.9326 87.414 23.5324C88.8541 24.002 90.1367 24.6591 91.2687 25.498C91.7946 25.1346 92.3381 24.8215 92.9005 24.562C94.1525 23.9768 95.4884 23.6927 96.8945 23.6927H96.9836L97.0191 23.6803H101.956C104.098 23.6803 105.982 23.6483 107.593 23.468C109.187 23.3035 110.49 23.0177 111.501 22.6444V58.2556H117.17V59.5285H101.057C101.72 60.9892 102.051 62.8129 102.051 65.0025C102.051 69.9773 100.012 74.0547 95.9496 77.2324C91.8873 80.4103 86.6256 82.0001 80.1633 82.0001C74.3025 82.0001 69.605 80.9937 66.0583 78.9858C62.5092 76.9773 60.7276 74.3862 60.7276 71.1926C60.7276 69.2595 61.5846 67.4454 63.2811 65.722C64.9954 64.0135 67.395 62.5744 70.463 61.4056C68.6007 61.2581 67.0019 60.6318 65.6566 59.5161H47.6283H44.5629H33.1607V53.5818ZM326.689 28.6916H305.767L304.917 26.0612L305.686 23.6892H337.635L320.321 36.2642L319.544 33.8813L326.689 28.6916ZM300.018 38.4935L282.857 26.0291H292.167L293.054 23.6642L271.239 23.6879L297.182 42.5299L299.168 41.0764L300.018 38.4935ZM289.967 52.1566L306.84 39.9019L309.164 41.5995L309.91 43.8374L284.129 62.5503L290.749 42.1853L292.705 43.7329L289.967 52.1566ZM310.246 34.0275L316.66 53.7604L309.685 48.7149L307.588 50.088L324.804 62.5924L314.939 32.2801L312.687 32.2814L310.246 34.0275Z" fill="url(#paint0_linear_1_4)"/>
</g>
<defs>
<linearGradient id="paint0_linear_1_4" x1="0.715951" y1="41.0001" x2="337.635" y2="41.0001" gradientUnits="userSpaceOnUse">
<stop stop-color="#F8F8FF"/>
<stop offset="1" stop-color="white"/>
</linearGradient>
<clipPath id="clip0_1_4">
<rect width="338" height="82" fill="white"/>
</clipPath>
</defs>
</svg>
